<?xml version="1.0" standalone="no"?>
<!DOCTYPE svg PUBLIC "-//W3C//DTD SVG 20010904//EN"
 "http://www.w3.org/TR/2001/REC-SVG-20010904/DTD/svg10.dtd">
<svg version="1.0" xmlns="http://www.w3.org/2000/svg"
 width="2048.000000pt" height="2048.000000pt" viewBox="0 0 2048.000000 2048.000000"
 preserveAspectRatio="xMidYMid meet">

<g transform="translate(0.000000,2048.000000) scale(0.100000,-0.100000)"
fill="#000000" stroke="none">
<path d="M10552 12973 c-33 -126 -97 -365 -142 -533 -45 -168 -108 -402 -140
-520 -32 -118 -111 -411 -175 -650 -64 -239 -131 -491 -150 -560 -19 -69 -120
-444 -225 -835 -234 -870 -431 -1595 -471 -1734 -17 -57 -27 -107 -22 -111 31
-28 618 -419 620 -413 30 106 318 1177 528 1963 64 239 150 557 190 705 77
280 275 1014 365 1355 47 178 294 1084 305 1121 4 11 -75 69 -290 215 -162
109 -303 205 -314 212 -17 12 -22 -1 -79 -215z"/>
<path d="M11854 12095 c-86 -173 -154 -320 -152 -325 2 -6 113 -77 248 -158
135 -82 452 -274 705 -427 253 -153 611 -369 795 -480 423 -256 491 -298 487
-308 -3 -9 -133 -88 -1496 -907 -407 -245 -741 -449 -741 -453 0 -7 307 -626
315 -635 5 -5 3325 1989 3325 1997 0 3 -208 132 -463 285 -254 153 -743 449
-1087 656 -344 207 -789 476 -990 597 -201 121 -459 277 -573 347 -114 69
-210 126 -213 126 -3 0 -75 -142 -160 -315z"/>
<path d="M8425 12391 c-11 -10 -313 -194 -875 -531 -217 -131 -613 -369 -880
-530 -267 -161 -717 -432 -1000 -602 -283 -170 -520 -315 -527 -321 -9 -9 178
-126 800 -500 1342 -806 2186 -1316 2378 -1437 62 -39 116 -67 120 -63 4 4 78
149 164 322 123 245 154 316 143 323 -7 5 -38 24 -68 42 -114 69 -622 377
-800 486 -102 62 -302 184 -445 270 -293 177 -810 491 -868 527 l-39 24 224
136 c122 75 408 247 633 383 1397 842 1385 834 1380 851 -10 29 -320 629 -325
629 -4 0 -10 -4 -15 -9z"/>
</g>
</svg>
